<?xml version="1.0" encoding="iso-8859-1"?>
<!-- Generator: Adobe Illustrator 19.0.0, SVG Export Plug-In . SVG Version: 6.00 Build 0)  -->
<svg version="1.1" id="Layer_1" xmlns="http://www.w3.org/2000/svg" xmlns:xlink="http://www.w3.org/1999/xlink" x="0px" y="0px"
	 viewBox="0 0 512 512" style="enable-background:new 0 0 512 512;" xml:space="preserve">
<path style="fill:#EEA0B6;" d="M256,377.89l-148.91,27.02C127.952,467.151,186.736,512,256,512s128.048-44.849,148.91-107.09
	L256,377.89z"/>
<path style="fill:#71CCCE;" d="M107.09,107.09C44.849,127.952,0,186.736,0,256s44.849,128.048,107.09,148.91L134.11,256
	L107.09,107.09z"/>
<path style="fill:#EA4820;" d="M404.91,107.09L377.89,256l27.02,148.91C467.151,384.048,512,325.264,512,256
	S467.151,127.952,404.91,107.09z"/>
<path style="fill:#F7AD3F;" d="M256,0c-69.264,0-128.048,44.849-148.91,107.09L256,134.11l148.91-27.021
	C384.048,44.849,325.264,0,256,0z"/>
<path style="fill:#20AAB0;" d="M157.021,98.979c-17.456,0-34.244,2.853-49.931,8.11c-5.257,15.686-8.11,32.474-8.11,49.931
	c0,37.525,13.17,71.969,35.131,98.979l121.89-49.931V134.11C228.99,112.151,194.545,98.979,157.021,98.979z"/>
<path style="fill:#F76720;" d="M404.91,107.09c-15.685-5.257-32.474-8.11-49.931-8.11c-37.525,0-71.969,13.17-98.979,35.131v71.959
	L377.89,256c21.961-27.01,35.131-61.455,35.131-98.979C413.021,139.564,410.167,122.775,404.91,107.09z"/>
<path style="fill:#EA4820;" d="M256,134.11c-22.846,18.575-40.371,43.438-49.931,71.959h99.861
	C296.372,177.549,278.846,152.685,256,134.11z"/>
<path style="fill:#DA5B82;" d="M256,305.931L134.11,256c-21.961,27.01-35.131,61.455-35.131,98.979
	c0,17.456,2.853,34.244,8.11,49.931c15.686,5.257,32.474,8.11,49.931,8.11c37.525,0,71.969-13.17,98.979-35.131v-71.958H256z"/>
<path style="fill:#D92622;" d="M377.89,256L256,305.931v71.959c27.01,21.961,61.455,35.131,98.979,35.131
	c17.456,0,34.244-2.853,49.931-8.11c5.257-15.686,8.111-32.474,8.111-49.931C413.021,317.455,399.85,283.01,377.89,256z"/>
<path style="fill:#BD0A3A;" d="M206.069,305.931c9.559,28.521,27.084,53.384,49.931,71.959
	c22.846-18.575,40.372-43.438,49.931-71.959H206.069z"/>
<path style="fill:#FFFFFF;" d="M256,197.959c-49.195,0-93.098,22.63-121.89,58.041c28.79,35.411,72.694,58.041,121.89,58.041
	c49.195,0,93.099-22.63,121.89-58.041C349.099,220.589,305.195,197.959,256,197.959z"/>
<circle style="fill:#41BBBE;" cx="256" cy="256" r="58.041"/>
<path style="fill:#06484A;" d="M256,272.879c-9.307,0-16.879-7.572-16.879-16.879c0-9.307,7.572-16.879,16.879-16.879
	c9.307,0,16.879,7.572,16.879,16.879C272.879,265.307,265.307,272.879,256,272.879z"/>
<g>
</g>
<g>
</g>
<g>
</g>
<g>
</g>
<g>
</g>
<g>
</g>
<g>
</g>
<g>
</g>
<g>
</g>
<g>
</g>
<g>
</g>
<g>
</g>
<g>
</g>
<g>
</g>
<g>
</g>
</svg>
